<svg version="1.1" id="Layer_1" xmlns="http://www.w3.org/2000/svg" xmlns:xlink="http://www.w3.org/1999/xlink" x="0px" y="0px"
	 width="100%" viewBox="0 0 192 192" enable-background="new 0 0 192 192" xml:space="preserve">
<path fill="#000000" opacity="1.000000" stroke="none" 
	d="
M193.000000,104.000000 
	C193.000000,133.643509 193.000000,163.287033 193.000000,192.965271 
	C129.073120,192.965271 65.146217,192.965271 1.109655,192.965271 
	C1.109655,129.123215 1.109655,65.246193 1.109655,1.000000 
	C30.019852,1.000000 59.041267,1.000000 88.209915,1.244523 
	C83.486343,2.429387 78.575363,3.201706 73.755432,4.354701 
	C68.333199,5.651775 63.028782,7.373162 57.729870,10.907001 
	C71.575180,25.441298 84.968971,39.501598 98.626076,53.838326 
	C106.861382,34.599854 123.688148,24.704969 136.986618,11.836349 
	C136.532928,9.769565 135.052994,9.184203 133.691956,8.672091 
	C130.275345,7.386534 126.770660,6.335425 123.351852,5.055278 
	C117.736336,2.952597 111.523705,3.456990 106.000000,1.000000 
	C134.928146,1.000000 163.856293,1.000000 193.000000,1.000000 
	C193.000000,30.687214 193.000000,60.374947 192.798431,90.186989 
	C190.891296,81.022705 189.908447,71.587723 186.212204,62.733402 
	C183.754593,56.846264 182.910095,56.423042 178.509537,60.728813 
	C166.982941,72.007118 155.389847,83.211372 143.340164,93.934616 
	C142.373016,94.795296 141.152100,95.554962 141.573853,98.042778 
	C156.460678,108.610931 170.639099,120.988602 182.709702,135.386902 
	C185.389404,133.900223 185.581924,131.747925 186.401825,129.992401 
	C190.251434,121.749901 190.692276,112.637245 193.000000,104.000000 
M5.684355,71.141548 
	C0.380229,89.770493 0.524810,108.426743 7.073859,126.592644 
	C20.195181,162.988861 46.078098,184.435349 84.394562,190.577652 
	C102.673988,193.507950 120.150139,190.585373 136.909653,182.942047 
	C138.204834,182.351364 139.833984,182.081482 140.427383,179.767868 
	C132.613312,175.457611 127.701729,168.049164 122.305489,161.105911 
	C116.786018,154.004105 111.383469,146.815933 105.367790,140.108505 
	C101.387688,135.670731 101.267082,135.422180 97.740585,140.197296 
	C90.296890,150.276550 81.990631,159.579819 73.182823,168.455017 
	C69.298424,172.369141 65.202805,176.015396 59.964211,178.121140 
	C55.728352,179.823807 52.078812,178.790573 48.953648,175.778687 
	C45.799255,172.738617 45.554585,169.014282 47.284431,165.192688 
	C48.166504,163.243988 49.309456,161.360580 50.617657,159.666290 
	C58.058811,150.028961 67.841553,143.067398 77.674332,136.161499 
	C81.624214,133.387360 85.481941,130.480713 89.351761,127.594368 
	C91.530937,125.968994 91.696091,124.191132 89.754089,122.152763 
	C85.042877,117.207771 80.375237,112.220627 75.735977,107.207947 
	C73.093147,104.352371 70.877457,104.433014 68.443611,107.611534 
	C61.965912,116.071167 54.496784,123.743950 48.686680,132.744888 
	C45.141193,138.237534 40.682934,142.997025 35.650185,147.152817 
	C30.386259,151.499527 26.281828,151.791824 22.140226,148.452530 
	C17.733530,144.899490 16.680132,139.627029 19.584188,134.071106 
	C20.724064,131.890335 22.345831,129.918777 23.965885,128.039673 
	C28.806505,122.425049 35.170208,118.628555 40.927284,114.110092 
	C46.652523,109.616608 52.532948,105.309929 57.839546,99.997261 
	C40.000370,90.410767 28.661301,75.066025 17.988749,59.024937 
	C22.945765,62.112629 27.090797,66.033508 31.184652,70.007118 
	C35.301243,74.002785 39.019672,78.502014 44.639004,80.627785 
	C38.356041,70.202805 28.572813,62.862873 20.638235,53.444695 
	C24.076462,51.953693 25.318886,53.891037 26.708813,55.134495 
	C33.287861,61.020256 39.773434,67.010765 46.374142,72.871788 
	C47.338554,73.728127 48.204109,75.417542 50.747662,74.179901 
	C43.187946,65.375572 34.069988,58.161415 28.534401,47.959835 
	C39.583210,53.388908 46.427521,63.777843 56.133198,70.764519 
	C49.980858,60.331272 40.180897,53.049973 33.069702,43.419922 
	C48.854244,55.420189 67.765854,64.123825 74.921585,85.429550 
	C78.916054,81.813858 82.154266,78.712753 85.578690,75.833084 
	C88.705330,73.203827 88.129013,71.247055 85.398987,68.553764 
	C69.897369,53.260780 53.897053,38.323673 44.979992,17.109648 
	C25.329792,30.223442 12.668365,48.104652 5.684355,71.141548 
M149.236893,131.222412 
	C144.021835,124.528351 139.886017,117.069496 134.420135,110.538124 
	C131.971771,107.612488 130.191635,107.137184 127.207329,110.033340 
	C122.856773,114.255386 119.684944,119.574959 113.901085,122.543106 
	C108.867874,125.126038 109.476509,126.473373 113.567184,130.544540 
	C127.494965,144.405884 146.726303,152.273682 157.531708,169.879990 
	C162.887863,166.047348 167.164993,161.433380 171.213516,156.588531 
	C172.774460,154.720566 172.808929,153.165726 170.414337,151.741196 
	C161.962204,146.713089 155.718918,139.345367 149.236893,131.222412 
M123.696213,64.375496 
	C120.783295,66.226273 117.080544,66.472588 114.202087,68.814949 
	C116.893013,74.952522 123.220276,77.115623 127.040192,82.031876 
	C127.923134,81.418968 128.670609,81.050903 129.226456,80.492195 
	C142.612335,67.037773 156.135635,53.742603 172.249481,43.463791 
	C175.048737,41.678181 173.822540,39.823517 172.434036,38.061710 
	C166.318359,30.301912 159.278229,23.510851 151.066055,17.972116 
	C149.232986,16.735792 147.661819,16.278000 145.864777,18.318115 
	C139.817642,25.183167 133.579788,31.880051 127.517868,38.732372 
	C126.461723,39.926243 124.755280,41.123100 125.768547,44.125267 
	C130.086807,39.972591 133.935959,36.170456 137.897644,32.489407 
	C141.885040,28.784460 145.658890,24.761509 150.951004,22.611313 
	C146.022110,33.541115 135.282135,39.695934 129.358032,49.730305 
	C139.207245,43.461136 146.162766,34.030163 155.188324,26.901228 
	C154.673599,31.302431 151.680099,34.094574 149.280609,37.092716 
	C141.621689,46.662487 135.031677,57.261990 123.696213,64.375496 
M69.879234,48.633247 
	C75.741455,54.763779 81.582230,60.915081 87.484871,67.006447 
	C88.599106,68.156311 89.681114,69.653114 91.686394,69.116165 
	C95.690765,68.043892 98.826706,59.330029 96.151817,56.167751 
	C83.787376,41.550365 69.745926,28.498581 56.894485,14.331834 
	C55.067253,12.317588 53.005024,12.070366 50.672779,13.640457 
	C48.452400,15.135238 48.234871,17.013609 49.213394,19.278292 
	C50.003578,21.107094 50.630424,23.020990 51.568760,24.768812 
	C56.257011,33.501545 63.114540,40.590244 69.879234,48.633247 
M75.767395,141.321198 
	C67.444939,146.111237 60.795063,152.868118 54.199741,159.685028 
	C52.333790,161.613678 50.739838,163.766159 49.873241,166.323471 
	C49.046192,168.764069 48.833042,171.268600 50.685703,173.400986 
	C52.632141,175.641296 55.231441,176.181625 57.961708,175.433411 
	C59.692978,174.958954 61.488331,174.231567 62.899990,173.153030 
	C76.810341,162.525208 87.381599,148.844681 97.616302,134.869431 
	C99.377586,132.464447 97.713531,130.887253 96.226967,129.261765 
	C94.514038,127.388786 92.958862,128.166595 91.518936,129.575150 
	C86.965607,134.029312 81.411217,137.135513 75.767395,141.321198 
M165.112701,69.604271 
	C169.588638,65.378525 173.875916,60.926292 178.596405,56.994137 
	C182.860428,53.442215 180.756470,50.423058 178.656921,47.075985 
	C176.224808,43.198689 173.719513,45.636452 171.523560,47.103210 
	C156.203445,57.336079 143.371567,70.410637 130.427689,83.351418 
	C128.956146,84.822601 128.972946,86.213646 130.440582,87.656166 
	C131.745712,88.938972 133.127625,90.163147 134.291885,91.565742 
	C136.794952,94.581223 138.877060,94.339935 141.671646,91.607994 
	C149.163895,84.283707 156.940445,77.250214 165.112701,69.604271 
M145.112885,120.423805 
	C151.767685,130.184204 158.617096,139.824112 168.198151,146.984146 
	C173.970215,151.297668 176.601929,150.350525 179.833710,144.008896 
	C181.766953,140.215378 180.325989,137.321930 178.001328,134.467407 
	C167.416000,121.469307 154.448532,111.163422 140.923096,101.458420 
	C138.579391,99.776726 137.013031,99.725403 135.014832,101.931664 
	C132.988953,104.168488 133.846985,105.716705 135.494690,107.471100 
	C139.032166,111.237610 142.061264,115.392944 145.112885,120.423805 
M122.712418,156.842224 
	C126.668648,161.776199 130.573517,166.752640 134.603485,171.625641 
	C136.524460,173.948486 138.855972,175.854416 141.665405,177.075089 
	C146.137939,179.018326 149.484390,176.758911 152.341171,173.813492 
	C155.140732,170.927078 152.905853,168.199478 151.270050,165.748856 
	C148.746841,161.968796 145.375381,158.938782 141.718170,156.309311 
	C131.165710,148.722275 120.956078,140.714478 111.154343,132.177872 
	C109.647057,130.865128 108.031776,128.450851 105.685966,130.710449 
	C103.341866,132.968414 105.180161,134.954803 106.650925,136.792908 
	C111.851913,143.292953 117.071678,149.777985 122.712418,156.842224 
M23.539850,145.862686 
	C26.590086,148.478241 29.620821,147.931778 32.666359,145.835419 
	C35.426113,143.935806 37.831509,141.675262 40.007828,139.122818 
	C48.213181,129.499329 54.855190,118.656876 63.377750,109.272293 
	C65.089149,107.387787 67.496376,105.808403 67.802612,102.730492 
	C65.181007,100.183167 62.822021,100.346298 59.982883,102.654190 
	C52.757114,108.527931 45.295475,114.110428 38.011597,119.914108 
	C32.822609,124.048607 27.189684,127.733536 23.411852,133.397385 
	C20.824045,137.277100 19.767096,141.244553 23.539850,145.862686 
M82.682022,101.834007 
	C86.920471,106.073578 91.252792,110.224716 95.361595,114.586418 
	C97.765945,117.138748 99.352905,116.954742 101.810127,114.410332 
	C106.635307,109.413895 109.016190,102.813873 113.446609,97.642982 
	C116.110558,94.533806 115.286049,92.384010 112.033836,91.110199 
	C106.743042,89.037910 102.690285,85.391502 98.775894,81.540756 
	C96.445724,79.248466 94.608055,79.504677 92.457024,81.742851 
	C89.112175,85.223206 85.571411,88.514305 82.166786,91.938416 
	C77.450920,96.681259 77.472099,96.749489 82.682022,101.834007 
M119.822754,49.648991 
	C117.204124,46.220089 114.585487,42.791191 111.970749,39.367390 
	C106.840919,43.231548 104.712135,46.648182 102.999557,53.541595 
	C101.782082,58.442162 106.116051,64.701553 111.171089,64.831024 
	C118.410957,65.016457 123.987885,61.501450 129.812485,55.830666 
	C124.814034,55.460205 123.775787,51.239254 119.822754,49.648991 
M66.555016,75.056572 
	C65.213806,73.457207 64.459175,71.273369 62.353786,70.619751 
	C58.222359,74.422470 56.820827,81.009903 49.756969,81.601997 
	C50.337975,84.957558 47.433353,85.771782 45.117249,87.133499 
	C47.733524,91.247322 51.331150,93.359840 55.334267,95.143066 
	C59.834583,97.147781 63.209126,96.453217 66.922684,92.963936 
	C70.670807,89.442184 71.514465,85.919868 69.730026,81.459396 
	C68.936089,79.474823 67.868279,77.599800 66.555016,75.056572 
M105.435867,69.905190 
	C103.697174,71.155708 101.888885,72.321724 100.239380,73.680519 
	C98.591972,75.037590 98.226166,76.655701 99.881393,78.365211 
	C102.535881,81.106781 105.202057,83.871628 108.572830,85.718269 
	C111.663490,87.411438 114.179161,87.055946 115.781914,83.367439 
	C118.362930,77.427643 113.156151,69.916847 105.435867,69.905190 
M114.222755,109.292343 
	C114.988564,109.603165 115.817024,109.812599 116.510178,110.240982 
	C121.670891,113.430412 124.313194,109.254105 126.669395,106.226494 
	C129.496918,102.593246 124.568657,102.001823 123.284309,99.944016 
	C122.947968,99.405121 122.325943,99.040298 121.821754,98.611244 
	C120.698021,97.655014 119.685387,96.501816 117.912712,97.244583 
	C114.139847,98.825478 111.835884,105.020569 114.222755,109.292343 
M143.857758,15.908668 
	C142.411926,12.669954 141.859329,12.409678 139.298325,14.857719 
	C132.696182,21.168633 126.093529,27.494223 120.303871,34.589657 
	C119.526108,35.542835 118.248657,36.464016 119.683701,38.650532 
	C128.601730,32.185658 135.285202,23.435350 143.857758,15.908668 
M84.735306,107.763977 
	C81.625145,105.258156 79.660683,101.184334 74.805450,99.851974 
	C76.517014,105.327202 91.584457,120.328255 96.090309,120.667450 
	C93.315277,115.254669 88.641357,112.264046 84.735306,107.763977 
M117.354202,116.396530 
	C116.985085,112.793442 113.121117,111.239960 109.653587,113.414993 
	C108.002487,114.450653 106.608742,115.786324 104.696312,116.539246 
	C102.878296,117.254997 100.959267,118.752945 102.817596,121.060989 
	C104.318214,122.924774 105.962440,125.082253 108.894241,122.588913 
	C111.390991,120.465561 114.198555,118.707680 117.354202,116.396530 
M127.010262,89.009346 
	C126.378990,89.096764 125.581383,88.967758 125.142273,89.305214 
	C120.928909,92.543312 121.817215,95.516785 127.779396,100.142914 
	C130.359863,102.145142 131.922348,101.109116 133.737900,99.332161 
	C135.796280,97.317535 134.747375,95.868645 133.055695,94.377357 
	C131.189148,92.731926 129.404755,90.993317 127.010262,89.009346 
M81.782906,83.293945 
	C75.336533,89.489548 75.336533,89.489548 76.305489,92.725395 
	C81.970985,89.597557 91.691559,78.850578 91.524292,75.576645 
	C87.555931,76.985313 85.400352,80.526047 81.782906,83.293945 
M103.855865,67.097969 
	C105.379745,63.770023 102.324936,62.194706 100.921120,63.307648 
	C97.982635,65.637245 95.820114,69.117912 93.743546,73.780746 
	C98.459694,72.200615 100.243805,68.813797 103.855865,67.097969 
M121.928314,81.445122 
	C117.539284,82.927277 118.787758,85.891396 119.676315,89.312080 
	C123.527359,87.434937 124.742783,85.231522 121.928314,81.445122 
M70.212990,94.209778 
	C68.839844,95.097191 67.232635,95.804207 67.341057,97.928581 
	C69.178352,99.795570 71.165482,100.251076 72.721443,97.858780 
	C73.990334,95.907867 73.257812,94.380394 70.212990,94.209778 
M98.548164,127.174789 
	C99.671516,128.255768 100.647392,130.070984 102.535187,128.550385 
	C103.808586,127.524673 103.423996,126.197327 102.408714,125.138863 
	C101.319229,124.003029 100.291710,122.245934 98.414810,123.090363 
	C96.521301,123.942261 97.167549,125.418770 98.548164,127.174789 
z"/>
<path fill="#000000" opacity="1.000000" stroke="none" 
	d="
M100.248886,106.707977 
	C94.394318,107.916855 90.389687,105.789429 87.886444,100.984886 
	C85.708206,96.804153 86.668350,92.875031 89.747116,89.500259 
	C92.919495,86.022858 96.943466,85.410065 101.158340,87.044327 
	C105.208763,88.614830 107.663483,91.803642 107.736977,96.193306 
	C107.820274,101.168770 105.255486,104.659225 100.248886,106.707977 
z"/>
</svg>